<svg width="16" height="11" viewBox="0 0 16 11" fill="none" xmlns="http://www.w3.org/2000/svg">
<path d="M6.30898 11C6.15138 11.0003 5.99527 10.9692 5.84961 10.9084C5.70394 10.8477 5.57159 10.7585 5.46015 10.6459L0.367133 5.50073C0.252386 5.38895 0.160829 5.25521 0.0978045 5.10731C0.0347799 4.95941 0.0015498 4.80031 5.29292e-05 4.6393C-0.00144394 4.47829 0.0288224 4.31859 0.0890861 4.16952C0.14935 4.02046 0.238404 3.885 0.351052 3.77106C0.463701 3.65713 0.597687 3.56699 0.745194 3.50591C0.892701 3.44484 1.05077 3.41404 1.21019 3.41533C1.36961 3.41661 1.52717 3.44995 1.6737 3.51339C1.82022 3.57684 1.95277 3.66912 2.0636 3.78486L6.30778 8.0715L13.9497 0.355546C14.1748 0.128007 14.4802 0.000113779 14.7987 7.58804e-08C15.1172 -0.000113628 15.4227 0.127562 15.648 0.354939C15.8733 0.582317 15.9999 0.890771 16 1.21245C16.0001 1.53412 15.8737 1.84266 15.6486 2.0702L7.15782 10.6459C7.04638 10.7585 6.91403 10.8477 6.76836 10.9084C6.62269 10.9692 6.46658 11.0003 6.30898 11Z" fill="#0F4863"/>
</svg>
