<svg width="20" height="22" viewBox="0 0 20 22" fill="none" xmlns="http://www.w3.org/2000/svg">
<path d="M18.8891 4.33333C18.8891 6.17444 14.9091 7.66667 10.0002 7.66667C5.09133 7.66667 1.11133 6.17444 1.11133 4.33333M18.8891 4.33333C18.8891 2.49222 14.9091 1 10.0002 1C5.09133 1 1.11133 2.49222 1.11133 4.33333M18.8891 4.33333V11M1.11133 4.33333V11M18.8891 11C18.8891 12.8411 14.9091 14.3333 10.0002 14.3333C5.09133 14.3333 1.11133 12.8411 1.11133 11M18.8891 11V17.6667C18.8891 19.5078 14.9091 21 10.0002 21C5.09133 21 1.11133 19.5078 1.11133 17.6667V11" stroke="white" stroke-width="1.5" stroke-linecap="round" stroke-linejoin="round"/>
</svg>
