<svg width="18" height="22" viewBox="0 0 18 22" fill="none" xmlns="http://www.w3.org/2000/svg">
<path d="M5.47555 11H12.4078M5.47555 15.4444H12.4078M6.77777 1V5.44444C6.77777 5.73913 6.66071 6.02174 6.45234 6.23012C6.24396 6.43849 5.96135 6.55556 5.66666 6.55556H1.22222M16.7778 2.11111V19.8889C16.7868 20.1735 16.6828 20.4501 16.4886 20.6582C16.2943 20.8664 16.0256 20.9893 15.7411 21H2.25889C1.97437 20.9893 1.70565 20.8664 1.51141 20.6582C1.31718 20.4501 1.21321 20.1735 1.22222 19.8889V6.36444C1.22235 5.77512 1.45655 5.20998 1.87333 4.79333L5.01555 1.65111C5.4322 1.23433 5.99734 1.00013 6.58666 1H15.7411C16.0256 1.01072 16.2943 1.13358 16.4886 1.34177C16.6828 1.54995 16.7868 1.82653 16.7778 2.11111Z" stroke="white" stroke-width="1.5" stroke-linecap="round" stroke-linejoin="round"/>
</svg>
