<svg width="20" height="20" viewBox="0 0 20 20" fill="none" xmlns="http://www.w3.org/2000/svg">
<path d="M18.046 7.43405L18.046 7.43402C18.1192 7.36084 18.2379 7.3608 18.3112 7.43405L19.195 8.31789C19.195 8.3179 19.195 8.31791 19.195 8.31792C19.2683 8.39118 19.2682 8.5099 19.195 8.58307L14.3337 13.4444L14.3337 13.4445C14.2605 13.5176 14.1418 13.5177 14.0685 13.4444L13.1847 12.5606L13.1846 12.5605C13.1114 12.4874 13.1114 12.3687 13.1847 12.2954L13.4056 12.0744L13.936 11.5441L13.4056 11.0138L11.8588 9.46698L11.3285 8.93664L10.7982 9.46698L7.63257 12.6326L7.10223 13.1629L7.63257 13.6933L7.85354 13.9142C8.04881 14.1095 8.04881 14.4261 7.85354 14.6213L3.37133 19.1035C3.17606 19.2988 2.85949 19.2988 2.66422 19.1035L0.896452 17.3358C0.701183 17.1405 0.701183 16.8239 0.896452 16.6287L0.366122 16.0983L0.896457 16.6287L5.37863 12.1464C5.5739 11.9512 5.89047 11.9512 6.08573 12.1464L6.61607 11.6161L6.08574 12.1464L6.30671 12.3674L6.83704 12.8977L7.36737 12.3674L10.533 9.20178L11.0633 8.67145L10.533 8.14112L8.98619 6.59433L8.45586 6.064L7.92553 6.59433L7.70456 6.8153L7.70453 6.81533C7.63135 6.88852 7.51266 6.88856 7.4394 6.8153L6.55554 5.93144L6.55551 5.93141C6.48232 5.85823 6.48228 5.73954 6.55554 5.66628L11.4169 0.804929L11.4169 0.804901C11.4901 0.731719 11.6088 0.731675 11.682 0.804917C11.682 0.804921 11.682 0.804925 11.682 0.804929L12.5659 1.68882L12.5659 1.68886C12.6391 1.76204 12.6392 1.88073 12.5659 1.95399L12.3449 2.17496L11.8146 2.7053L12.3449 3.23563L16.7644 7.65503L17.2947 8.18535L17.825 7.65503L18.046 7.43405Z" stroke="white" stroke-width="1.5"/>
</svg>
