<svg width="16" height="22" viewBox="0 0 16 22" fill="none" xmlns="http://www.w3.org/2000/svg">
<path d="M4.66683 7.66667C4.66683 6.78261 5.01802 5.93477 5.64314 5.30964C6.26826 4.68452 7.11611 4.33333 8.00016 4.33333M5.77794 21H10.2224M10.2224 17.6667C10.2224 13.1111 14.6668 12.2222 14.6668 7.66667C14.6668 6.79119 14.4944 5.92428 14.1594 5.11544C13.8243 4.30661 13.3333 3.57168 12.7142 2.95262C12.0951 2.33356 11.3602 1.8425 10.5514 1.50747C9.74255 1.17244 8.87564 1 8.00016 1C7.12468 1 6.25778 1.17244 5.44894 1.50747C4.6401 1.8425 3.90517 2.33356 3.28612 2.95262C2.66706 3.57168 2.176 4.30661 1.84097 5.11544C1.50593 5.92428 1.3335 6.79119 1.3335 7.66667C1.3335 12.1111 5.77794 13.2222 5.77794 17.6667H10.2224Z" stroke="white" stroke-width="1.5" stroke-linecap="round" stroke-linejoin="round"/>
</svg>
