<svg width="16" height="22" viewBox="0 0 16 22" fill="none" xmlns="http://www.w3.org/2000/svg">
<path d="M8.00016 14.3333C8.87564 14.3333 9.74255 14.1609 10.5514 13.8259C11.3602 13.4908 12.0951 12.9998 12.7142 12.3807C13.3333 11.7617 13.8243 11.0267 14.1594 10.2179C14.4944 9.40905 14.6668 8.54215 14.6668 7.66667C14.6668 6.79119 14.4944 5.92428 14.1594 5.11544C13.8243 4.30661 13.3333 3.57168 12.7142 2.95262C12.0951 2.33356 11.3602 1.8425 10.5514 1.50747C9.74255 1.17244 8.87564 1 8.00016 1C6.23205 1 4.53636 1.70238 3.28612 2.95262C2.03587 4.20286 1.3335 5.89856 1.3335 7.66667C1.3335 9.43478 2.03587 11.1305 3.28612 12.3807C4.53636 13.631 6.23205 14.3333 8.00016 14.3333ZM8.00016 14.3333V21M5.22238 7.66667C5.22238 6.92995 5.51504 6.22342 6.03598 5.70248C6.55691 5.18155 7.26345 4.88889 8.00016 4.88889" stroke="white" stroke-width="1.5" stroke-linecap="round" stroke-linejoin="round"/>
</svg>
