<svg width="22" height="22" viewBox="0 0 22 22" fill="none" xmlns="http://www.w3.org/2000/svg">
<path d="M19.8889 5.44444H21V18.7778C21 19.3671 20.7659 19.9324 20.3491 20.3491C19.9324 20.7659 19.3671 21 18.7778 21M18.7778 21C18.1884 21 17.6232 20.7659 17.2064 20.3491C16.7897 19.9324 16.5556 19.3671 16.5556 18.7778V2.11111C16.5556 1.81643 16.4385 1.53381 16.2301 1.32544C16.0217 1.11706 15.7391 1 15.4444 1H2.11111C1.81643 1 1.53381 1.11706 1.32544 1.32544C1.11706 1.53381 1 1.81643 1 2.11111V18.7778C1 19.3671 1.23413 19.9324 1.65087 20.3491C2.06762 20.7659 2.63285 21 3.22222 21H18.7778ZM11 4.33333H13.2222M11 7.66667H13.2222M4.33333 11H13.2222M4.33333 14.3333H13.2222M4.33333 17.6667H13.2222M4.33333 4.33333H7.66667V7.66667H4.33333V4.33333Z" stroke="white" stroke-width="1.5" stroke-linecap="round" stroke-linejoin="round"/>
</svg>
