<svg width="16" height="14" viewBox="0 0 16 14" fill="none" xmlns="http://www.w3.org/2000/svg">
<path d="M15.125 13.75C14.9928 13.75 14.9399 13.75 14.887 13.75C13.5382 13.75 12.163 13.75 10.8142 13.75C10.682 13.75 10.5762 13.696 10.4968 13.588C9.41252 12.13 8.32821 10.672 7.2439 9.241C7.191 9.187 7.16456 9.133 7.08522 9.052C7.03232 9.106 6.97943 9.16 6.92654 9.214C5.68354 10.672 4.4141 12.13 3.17111 13.588C3.06533 13.696 2.98599 13.75 2.82731 13.75C2.24548 13.75 1.63721 13.75 1.05538 13.75C0.97604 13.75 0.923146 13.75 0.790913 13.75C2.53639 11.698 4.28187 9.673 6.02735 7.648C4.17608 5.191 2.35127 2.734 0.5 0.277C0.605787 0.25 0.65868 0.25 0.73802 0.25C2.13969 0.25 3.51492 0.25 4.91659 0.25C5.07527 0.25 5.18106 0.304 5.2604 0.439C6.21248 1.762 7.191 3.058 8.16953 4.354C8.22242 4.408 8.24887 4.462 8.35466 4.597C8.40755 4.516 8.434 4.462 8.46044 4.408C9.59765 3.085 10.7349 1.762 11.8721 0.412C11.9514 0.304 12.0572 0.25 12.2159 0.25C12.7977 0.25 13.406 0.25 13.9878 0.25C14.0671 0.25 14.12 0.25 14.2523 0.25C12.6126 2.167 10.9729 4.057 9.35963 5.974C11.2638 8.539 13.1679 11.131 15.125 13.75ZM12.4539 12.373C12.401 12.292 12.401 12.265 12.3745 12.238C9.75633 8.701 7.13811 5.191 4.54634 1.654C4.51989 1.6 4.467 1.546 4.4141 1.546C3.99096 1.546 3.59426 1.546 3.11822 1.546C3.19756 1.654 3.25045 1.735 3.30335 1.789C4.8108 3.814 6.34471 5.839 7.85217 7.864C8.91004 9.322 10.0208 10.78 11.1051 12.211C11.158 12.292 11.2638 12.346 11.3431 12.346C11.6869 12.373 12.0572 12.373 12.4539 12.373Z" fill="#1A1A1A"/>
</svg>
